# xmcd
#
# Track frame offsets:
#	150
#	16263
#	28446
#	39214
#	51428
#	70162
#	95738
#	109269
#	134564
#	150599
#	169393
#	185461
#	201659
#	217817
#	239349
#	256048
#	274135
#	288426
#
# Disc length: 4171 seconds
#
# Revision: 2
# Processed by: cddbd v1.5.2PL0 Copyright (c) Steve Scherf et al.
# Submitted via: audiograbber 1.83.01
#
DISCID=11104912
DTITLE=Various Artist - Pure Love Songs 1.1
DYEAR=2008
DGENRE=Ballad
TTITLE0=Righteous Brothers - Unchained Melody
TTITLE1=Temptations - My Girl
TTITLE2=Elton John - Friends
TTITLE3=Michael Jackson - Ben
TTITLE4=Barry White - Just The Way You Are
TTITLE5=Peaches and Herb - Reunited
TTITLE6=Nazareth - Love Hurts
TTITLE7=Santa Esmeralda - You're My Everything
TTITLE8=Player - Baby Come Back
TTITLE9=Captain and Tenille - Do That To Me One More Time
TTITLE10=Gino Vanelli - I Just Wanna Stop
TTITLE11=Commodores - Three Times A Lady
TTITLE12=Rita Coolidge - We're All Alone
TTITLE13=Peter Frampton - Baby, I Love Your Way
TTITLE14=Yvonne Elliman - I Don't Know How To Love Him
TTITLE15=Osmonds - Love Me For A Reason
TTITLE16=Teri De Sario and K.c. - Yes, I'm Ready
TTITLE17=Stylistics - You Make Me Feel Brand New
EXTD=
EXTT0=
EXTT1=
EXTT2=
EXTT3=
EXTT4=
EXTT5=
EXTT6=
EXTT7=
EXTT8=
EXTT9=
EXTT10=
EXTT11=
EXTT12=
EXTT13=
EXTT14=
EXTT15=
EXTT16=
EXTT17=
PLAYORDER=
